<?xml version="1.0" standalone="no"?>
<!DOCTYPE svg PUBLIC "-//W3C//DTD SVG 20010904//EN"
 "http://www.w3.org/TR/2001/REC-SVG-20010904/DTD/svg10.dtd">
<svg version="1.0" xmlns="http://www.w3.org/2000/svg"
 width="371.000000pt" height="321.000000pt" viewBox="0 0 371.000000 321.000000"
 preserveAspectRatio="xMidYMid meet">

<g transform="translate(0.000000,321.000000) scale(0.100000,-0.100000)"
fill="#000000" stroke="none">
<path d="M815 2956 c-48 -21 -114 -102 -156 -191 -73 -156 -115 -363 -125
-615 -7 -181 -1 -210 45 -210 41 0 55 29 48 97 -7 68 8 282 29 393 34 191 104
361 171 420 41 37 61 37 127 4 185 -92 446 -378 513 -561 27 -75 31 -70 -117
-134 -59 -25 -139 -67 -178 -92 -81 -52 -83 -52 -124 38 -20 43 -23 66 -23
170 0 66 -4 126 -8 133 -11 16 -52 16 -65 -1 -22 -26 -34 -149 -22 -223 10
-61 49 -161 80 -204 9 -12 -11 -38 -107 -135 -65 -67 -136 -146 -158 -178 -22
-31 -43 -57 -47 -57 -3 0 -18 48 -31 106 -14 59 -31 111 -39 115 -19 13 -49 7
-62 -13 -14 -22 5 -132 41 -238 l26 -79 -24 -80 -24 -81 -135 0 c-143 0 -160
-5 -160 -45 0 -38 19 -45 125 -45 145 0 148 -1 140 -64 -4 -28 -7 -83 -8 -123
l-2 -71 -45 -7 c-79 -11 -234 -55 -252 -72 -25 -22 -23 -50 5 -67 20 -14 29
-13 87 5 60 19 222 53 224 47 1 -2 8 -21 15 -43 7 -22 31 -69 52 -104 22 -35
39 -64 37 -65 -2 -2 -46 -19 -98 -40 -130 -51 -269 -134 -277 -165 -7 -28 7
-55 30 -59 9 -2 55 20 102 48 89 54 173 92 264 119 l55 17 88 -66 c200 -151
555 -280 839 -306 76 -7 99 2 99 41 0 34 -17 43 -115 55 -274 36 -579 145
-746 268 -38 28 -38 30 -17 36 13 3 75 6 138 6 122 0 140 6 140 46 0 42 -24
49 -154 48 -67 -1 -147 -7 -179 -13 -57 -10 -59 -10 -82 17 -28 32 -99 161
-92 168 7 8 216 -16 287 -32 36 -8 84 -21 108 -29 57 -20 84 -7 80 38 -3 28
-9 34 -53 50 -83 31 -215 56 -335 63 l-113 7 6 103 c2 56 8 107 11 112 16 26
235 -55 367 -134 48 -30 97 -54 108 -54 25 0 43 24 39 52 -6 47 -249 175 -412
217 -39 10 -72 23 -74 29 -8 24 48 154 96 223 170 245 385 428 621 527 112 47
171 84 171 107 0 24 32 34 148 46 86 9 138 9 224 0 116 -12 148 -22 148 -46 0
-23 59 -60 171 -107 236 -99 451 -282 621 -527 48 -69 104 -199 96 -223 -2 -6
-35 -19 -74 -29 -163 -42 -406 -170 -412 -217 -4 -28 14 -52 39 -52 11 0 60
24 108 54 49 29 119 65 155 80 84 33 204 67 210 58 2 -4 7 -31 11 -60 9 -64
32 -83 72 -57 24 16 25 20 19 75 -8 70 -8 70 139 70 106 0 125 7 125 45 0 40
-17 45 -160 45 l-135 0 -24 81 -24 80 26 82 c64 198 87 422 69 657 -13 162
-24 203 -58 208 -36 5 -57 -25 -50 -72 18 -125 24 -290 15 -410 -8 -116 -49
-339 -64 -354 -3 -3 -13 4 -21 17 -50 71 -142 176 -219 250 -74 71 -86 87 -76
100 32 44 71 144 81 207 12 74 0 195 -22 221 -13 17 -54 17 -65 1 -4 -7 -8
-67 -8 -133 0 -104 -3 -127 -23 -170 -41 -90 -43 -90 -124 -38 -39 25 -119 67
-178 92 -148 64 -144 59 -117 134 67 183 328 469 513 561 29 14 61 26 73 26
50 0 134 -119 176 -250 22 -69 32 -82 63 -78 39 5 48 29 34 85 -22 81 -88 209
-133 258 -69 75 -134 92 -221 58 -173 -66 -471 -367 -568 -571 l-35 -73 -70 8
c-90 10 -300 10 -390 0 l-70 -8 -35 73 c-99 206 -395 505 -568 571 -51 20
-106 21 -147 3z"/>
<path d="M1640 1441 c-25 -47 1 -131 40 -131 23 0 50 41 50 76 0 51 -15 74
-50 74 -19 0 -33 -7 -40 -19z"/>
<path d="M1940 1441 c-25 -47 1 -131 40 -131 23 0 50 41 50 76 0 51 -15 74
-50 74 -19 0 -33 -7 -40 -19z"/>
<path d="M1127 1389 c-8 -11 -13 -29 -10 -39 6 -22 365 -260 392 -260 40 0 56
54 24 82 -39 34 -362 238 -377 238 -8 0 -21 -9 -29 -21z"/>
<path d="M2340 1314 c-225 -147 -230 -151 -230 -177 0 -28 17 -47 42 -47 27 0
385 238 391 260 6 24 -19 60 -41 60 -9 -1 -82 -43 -162 -96z"/>
<path d="M2815 989 c-78 -9 -203 -39 -258 -63 -31 -12 -37 -20 -37 -45 0 -43
27 -55 82 -36 24 8 72 21 108 29 71 16 280 40 287 32 7 -7 -64 -136 -92 -168
-23 -27 -25 -27 -82 -17 -32 6 -112 12 -179 13 -130 1 -154 -6 -154 -48 0 -40
18 -46 145 -47 164 -1 170 -5 93 -56 -186 -121 -463 -219 -723 -253 -99 -14
-115 -21 -115 -55 0 -39 23 -48 99 -41 301 28 657 161 866 325 l60 47 55 -16
c92 -28 176 -66 265 -120 47 -28 93 -50 102 -48 23 4 37 31 30 59 -8 31 -147
114 -277 165 -52 21 -96 38 -98 40 -2 1 15 30 37 65 21 35 45 82 52 104 7 22
14 41 15 43 2 6 164 -28 224 -47 58 -18 67 -19 87 -5 28 17 30 45 5 67 -10 9
-60 28 -112 41 -165 44 -320 55 -485 35z"/>
<path d="M1713 929 c-44 -13 -76 -56 -69 -92 8 -40 58 -109 100 -138 32 -21
35 -28 30 -54 -16 -74 -72 -115 -157 -115 -66 0 -117 30 -133 78 -16 51 -38
68 -69 54 -46 -21 -30 -106 32 -163 94 -88 248 -89 343 -2 l40 35 39 -35 c49
-44 99 -61 181 -61 119 0 220 82 220 179 0 28 -5 38 -25 47 -31 14 -53 -3 -69
-54 -16 -48 -67 -78 -133 -78 -85 0 -141 41 -157 115 -5 26 -2 33 30 54 42 29
92 98 100 138 7 38 -26 79 -74 93 -45 12 -185 12 -229 -1z m187 -89 c12 -8 9
-15 -20 -45 -18 -19 -41 -35 -50 -35 -9 0 -33 18 -54 39 -33 34 -36 40 -20 44
34 9 129 7 144 -3z"/>
</g>
</svg>
